# xmcd
#
# Track frame offsets:
#	225
#	22443
#	36979
#	52172
#	65663
#	81950
#	99825
#	117184
#	134932
#	154270
#
# Disc length: 2321 seconds
#
# Revision: 0
# Processed by: cddbd v1.5.2PL0 Copyright (c) Steve Scherf et al.
# Submitted via: EasyCDDAExtractor 10.2.0.1
#
DISCID=98090e0a
DTITLE=Wade Spencer - My Heart
DYEAR=1900
DGENRE=Gospel
TTITLE0=This One's With Me
TTITLE1=Vessel Of Honor
TTITLE2=Jesus, Hold My Hand
TTITLE3=Forever
TTITLE4=Highway To Heaven
TTITLE5=My Heart
TTITLE6=Life's Highway
TTITLE7=My Homeland Is Near
TTITLE8=There's A Whole Lot Of People Going Home
TTITLE9=Emmaus
EXTD=
EXTT0=
EXTT1=
EXTT2=
EXTT3=
EXTT4=
EXTT5=
EXTT6=
EXTT7=
EXTT8=
EXTT9=
PLAYORDER=
